# xmcd
#
# Track frame offsets:
# 150
# 19515
# 35960
# 62271
# 76679
# 94862
# 112057
# 128952
# 147743
# 170533
# 195248
# 212974
# 231957
# 245369
# 264529
# 281467
# 303023
# 319613
#
# Disc length: 4514 seconds
#
#
# Revision: 0
# Processed by: cddbd v1.5.1PL0 Copyright (c) Steve Scherf et al.
# Submitted via: FreeRIP 2.942 
#
DISCID=f911a012
DTITLE=rick and renner - 
DYEAR=1900
DGENRE=Country
TTITLE0=eu mereço
TTITLE1=voce decide
TTITLE2=so pensqando em voce
TTITLE3=saudades desse amor
TTITLE4=e voce
TTITLE5=nos bares da cidade
TTITLE6=amor aventureiro
TTITLE7=nao quero mas eu te amo
TTITLE8=mil vezes cantarei
TTITLE9=so nos dois
TTITLE10=vou ganhar voce
TTITLE11=sem direçao
TTITLE12=pinga de goela abaixo
TTITLE13=nois tropica mas nao cai
TTITLE14=fim de semana
TTITLE15=mae
TTITLE16=onde voce anda
TTITLE17=seguir em frente
EXTD=
EXTT0=
EXTT1=
EXTT2=
EXTT3=
EXTT4=
EXTT5=
EXTT6=
EXTT7=
EXTT8=
EXTT9=
EXTT10=
EXTT11=
EXTT12=
EXTT13=
EXTT14=
EXTT15=
EXTT16=
EXTT17=
PLAYORDER=
